<svg width="80" height="80" viewBox="0 0 80 80" fill="none" xmlns="http://www.w3.org/2000/svg">
<rect width="80" height="80" rx="40" fill="white" fill-opacity="0.133333" style="fill:white;fill-opacity:0.133333;"/>
<g clip-path="url(#clip0_54_85)">
<path d="M51.209 32.1188C51.5917 32.3839 51.5917 32.9496 51.209 33.2147L48.0463 35.4059C47.6042 35.7123 47 35.3958 47 34.8579L47 30.4756C47 29.9377 47.6042 29.6212 48.0463 29.9276L51.209 32.1188Z" fill="white" style="fill:white;fill-opacity:1;"/>
<path d="M35.928 42.9089C36.2632 43.5455 36.6395 44.152 37.054 44.7253C35.1673 46.9803 32.3545 48.3337 29.3333 48.3337C28.7811 48.3337 28.3335 47.8858 28.3333 47.3337C28.3333 46.7815 28.781 46.3337 29.3333 46.3337C31.9835 46.3337 34.4327 45.0335 35.928 42.9089ZM39.6917 39.9998L38.6018 42.2283C38.429 41.9375 38.2667 41.6382 38.1165 41.3308L37.4651 39.9998L38.1165 38.6687C38.2666 38.3615 38.4291 38.0629 38.6018 37.7722L39.6917 39.9998ZM49.3333 31.6667C49.8855 31.6668 50.3333 32.1145 50.3333 32.6667C50.3332 33.219 49.8855 33.6667 49.3333 33.6667C46.2235 33.6667 43.3248 35.0424 41.3606 37.3416L40.7737 36.1414C40.6554 35.8995 40.5288 35.6633 40.3967 35.4314C42.7092 33.0624 45.9144 31.6667 49.3333 31.6667Z" fill="white" style="fill:white;fill-opacity:1;"/>
<path d="M51.209 46.7853C51.5917 47.0504 51.5917 47.6161 51.209 47.8812L48.0463 50.0724C47.6042 50.3788 47 50.0623 47 49.5244L47 45.1421C47 44.6042 47.6042 44.2877 48.0463 44.5941L51.209 46.7853Z" fill="white" style="fill:white;fill-opacity:1;"/>
<path d="M29.3333 32.6667C32.7971 32.6667 35.9583 34.6401 37.4796 37.752L39.0146 40.8921C40.9415 44.8338 44.9457 47.3334 49.3333 47.3334" stroke="white" style="stroke:white;stroke-opacity:1;" stroke-width="2" stroke-linecap="round"/>
</g>
<defs>
<clipPath id="clip0_54_85">
<rect width="32" height="32" fill="white" style="fill:white;fill-opacity:1;" transform="translate(24 24)"/>
</clipPath>
</defs>
</svg>
