<svg width="23" height="25" viewBox="0 0 23 25" fill="none" xmlns="http://www.w3.org/2000/svg">
<path d="M7.99992 16.6309H4.33592C4.02392 16.6309 3.86792 16.6309 3.73592 16.6442C3.12298 16.7053 2.55007 16.9766 2.11451 17.4122C1.67896 17.8477 1.40762 18.4206 1.34659 19.0336C1.33325 19.1656 1.33325 19.3216 1.33325 19.6336C1.33325 20.0069 1.33325 20.1936 1.34925 20.3416C1.42666 21.0329 1.77112 21.6666 2.30916 22.1074C2.8472 22.5483 3.53623 22.7615 4.22925 22.7016C4.37592 22.6882 4.55992 22.6522 4.92525 22.5789L5.31992 22.4989C5.82659 22.3989 6.08125 22.3482 6.29459 22.2656C6.72422 22.0996 7.10354 21.8253 7.39562 21.4692C7.6877 21.113 7.88257 20.6874 7.96125 20.2336C7.99992 20.0069 7.99992 19.7482 7.99992 19.2322V7.66958C7.99992 5.57625 7.99992 4.53091 8.60392 3.79358C9.20925 3.05625 10.2346 2.85091 12.2879 2.44025L14.9546 1.90691C17.9053 1.31625 19.3813 1.02158 20.3573 1.82158C21.3333 2.62158 21.3333 4.12691 21.3333 7.13625V7.29758M21.3333 7.29758V13.9642M21.3333 7.29758L7.99992 9.96425M21.3333 13.9642V16.5642C21.3333 17.0829 21.3333 17.3402 21.2933 17.5669C21.2148 18.0204 21.0203 18.4459 20.7288 18.802C20.4372 19.158 20.0584 19.4326 19.6293 19.5989C19.4146 19.6816 19.1613 19.7322 18.6533 19.8336L18.2586 19.9136C17.8933 19.9856 17.7106 20.0229 17.5613 20.0349C16.8684 20.0945 16.1798 19.8811 15.642 19.4403C15.1043 18.9994 14.76 18.366 14.6826 17.6749C14.6666 17.5282 14.6666 17.3416 14.6666 16.9682C14.6666 16.6549 14.6666 16.4989 14.6799 16.3669C14.7409 15.754 15.0123 15.1811 15.4478 14.7455C15.8834 14.3099 16.4563 14.0386 17.0693 13.9776C17.2013 13.9642 17.3573 13.9642 17.6693 13.9642H21.3333Z" stroke="white" style="stroke:white;stroke-opacity:1;" stroke-width="2.66667"/>
</svg>
