<svg width="30" height="25" viewBox="0 0 30 25" fill="none" xmlns="http://www.w3.org/2000/svg">
<path d="M1.74951 23.0211H27.8279M7.43461 17.0232L4.35736 16.5017L1.74951 11.286L3.18383 10.5688C3.54783 10.3854 3.94975 10.2899 4.35736 10.2899C4.76496 10.2899 5.16688 10.3854 5.53088 10.5688L5.75255 10.6992C6.11655 10.8827 6.51848 10.9782 6.92608 10.9782C7.33368 10.9782 7.73561 10.8827 8.09961 10.6992L9.57304 9.98207L5.66128 2.15854L6.83481 1.57178C7.26859 1.35838 7.75315 1.26976 8.23438 1.31582C8.71561 1.36187 9.17456 1.54077 9.56 1.83256L14.8018 5.74433C15.1885 6.03864 15.6499 6.21901 16.1337 6.26509C16.6175 6.31117 17.1046 6.22112 17.54 6.00511L23.0034 3.31903C23.7016 2.96709 24.5059 2.88806 25.2592 3.09737L26.524 3.46246C26.7854 3.53504 27.0272 3.66493 27.2321 3.84269C27.4369 4.02046 27.5995 4.24163 27.7082 4.49014C27.8168 4.73865 27.8687 5.00824 27.8601 5.27932C27.8515 5.5504 27.7826 5.81615 27.6584 6.05727L27.1629 7.04825C26.863 7.64805 26.3806 8.14354 25.7677 8.45648L9.02539 16.7625C8.53309 17.0063 7.97636 17.0884 7.43461 16.9972V17.0232Z" stroke="white" style="stroke:white;stroke-opacity:1;" stroke-width="2.60784" stroke-linecap="round"/>
</svg>
