<svg width="404" height="140" viewBox="0 0 404 140" fill="none" xmlns="http://www.w3.org/2000/svg">
<path d="M15.5 50C16.3284 50 17 50.6716 17 51.5V88.5C17 89.3284 16.3284 90 15.5 90C14.6716 90 14 89.3284 14 88.5V51.5C14 50.6716 14.6716 50 15.5 50ZM45.7588 51.2217C48.4151 49.4249 52 51.3282 52 54.5352V85.4648C52 88.6718 48.4151 90.575 45.7588 88.7783L22.8975 73.3135C20.5524 71.7271 20.5524 68.2729 22.8975 66.6865L45.7588 51.2217Z" fill="white" style="fill:white;fill-opacity:1;"/>
<path d="M202 10C235.137 10 262 36.8629 262 70C262 103.137 235.137 130 202 130C168.863 130 142 103.137 142 70C142 36.8629 168.863 10 202 10ZM186 48C183.791 48 182 49.7909 182 52V88C182 90.2091 183.791 92 186 92H192C194.209 92 196 90.2091 196 88V52C196 49.7909 194.209 48 192 48H186ZM212 48C209.791 48 208 49.7909 208 52V88C208 90.2091 209.791 92 212 92H218C220.209 92 222 90.2091 222 88V52C222 49.7909 220.209 48 218 48H212Z" fill="white" style="fill:white;fill-opacity:1;"/>
<path d="M388.5 50C387.672 50 387 50.6716 387 51.5V88.5C387 89.3284 387.672 90 388.5 90C389.328 90 390 89.3284 390 88.5V51.5C390 50.6716 389.328 50 388.5 50ZM358.241 51.2217C355.585 49.4249 352 51.3282 352 54.5352V85.4648C352 88.6718 355.585 90.575 358.241 88.7783L381.103 73.3135C383.448 71.7271 383.448 68.2729 381.103 66.6865L358.241 51.2217Z" fill="white" style="fill:white;fill-opacity:1;"/>
</svg>
