<svg width="38" height="32" viewBox="0 0 38 32" fill="none" xmlns="http://www.w3.org/2000/svg">
<path d="M2.27393 29.9241H36.1722M9.66376 22.1277L5.66376 21.4497L2.27393 14.6701L4.13833 13.7379C4.61148 13.4994 5.13393 13.3753 5.66376 13.3753C6.19358 13.3753 6.71603 13.4994 7.18918 13.7379L7.47732 13.9074C7.95047 14.1458 8.47291 14.27 9.00274 14.27C9.53256 14.27 10.055 14.1458 10.5282 13.9074L12.4434 12.9752L7.35867 2.80567L8.8841 2.04296C9.44795 1.76557 10.0778 1.65038 10.7033 1.71024C11.3289 1.7701 11.9255 2.00266 12.4265 2.38194L19.24 7.46669C19.7428 7.84925 20.3424 8.0837 20.9714 8.1436C21.6003 8.2035 22.2334 8.08645 22.7993 7.80567L29.901 4.31414C30.8086 3.85667 31.854 3.75393 32.8332 4.02601L34.4773 4.50058C34.817 4.59492 35.1314 4.76376 35.3977 4.99483C35.6639 5.2259 35.8753 5.51339 36.0166 5.83642C36.1578 6.15944 36.2253 6.50987 36.2141 6.86224C36.2029 7.2146 36.1133 7.56005 35.9519 7.87346L35.3078 9.1616C34.918 9.94126 34.2909 10.5853 33.4943 10.9921L11.7316 21.7887C11.0916 22.1057 10.368 22.2125 9.66376 22.0938V22.1277Z" stroke="#121316" style="stroke:#121316;stroke:color(display-p3 0.0706 0.0745 0.0863);stroke-opacity:1;" stroke-width="3.38983" stroke-linecap="round"/>
</svg>
